<?xml version="1.0" encoding="UTF-8" standalone="no"?>
<svg
   viewBox="0 0 48 48"
   width="96"
   height="96"
   version="1.1"
   id="svg11"
   sodipodi:docname="icon.svg"
   xml:space="preserve"
   inkscape:version="1.4.3 (0d15f75, 2025-12-25)"
   inkscape:export-filename="icon-300.png"
   inkscape:export-xdpi="300"
   inkscape:export-ydpi="300"
   xmlns:inkscape="http://www.inkscape.org/namespaces/inkscape"
   xmlns:sodipodi="http://sodipodi.sourceforge.net/DTD/sodipodi-0.dtd"
   xmlns="http://www.w3.org/2000/svg"
   xmlns:svg="http://www.w3.org/2000/svg"><defs
     id="defs11" /><sodipodi:namedview
     id="namedview11"
     pagecolor="#ffffff"
     bordercolor="#000000"
     borderopacity="0.25"
     inkscape:showpageshadow="2"
     inkscape:pageopacity="0.0"
     inkscape:pagecheckerboard="0"
     inkscape:deskcolor="#d1d1d1"
     inkscape:zoom="6.2976698"
     inkscape:cx="44.222706"
     inkscape:cy="38.188728"
     inkscape:window-width="1920"
     inkscape:window-height="1166"
     inkscape:window-x="-11"
     inkscape:window-y="-11"
     inkscape:window-maximized="1"
     inkscape:current-layer="svg11"><inkscape:page
       x="0"
       y="0"
       width="48"
       height="48"
       id="page12"
       margin="0"
       bleed="0" /></sodipodi:namedview><linearGradient
     id="YxSJb7ho~j2pFgiBR2SzXa"
     x1="19.889999"
     x2="28.233999"
     y1="11.876"
     y2="39.834999"
     gradientUnits="userSpaceOnUse"><stop
       offset="0"
       stop-color="#6e6e6e"
       id="stop1" /><stop
       offset=".999"
       stop-color="#4d4d4d"
       id="stop2" /></linearGradient><linearGradient
     id="hbE9Evnj3wAjjA2RX0We2a"
     x1="7.5339999"
     x2="27.556999"
     y1="7.5339999"
     y2="27.556999"
     gradientUnits="userSpaceOnUse"
     gradientTransform="translate(58)"><stop
       offset="0"
       stop-color="#f44f5a"
       id="stop1-5" /><stop
       offset=".443"
       stop-color="#ee3d4a"
       id="stop2-1" /><stop
       offset="1"
       stop-color="#e52030"
       id="stop3" /></linearGradient><linearGradient
     id="hbE9Evnj3wAjjA2RX0We2b"
     x1="27.372999"
     x2="40.507"
     y1="27.372999"
     y2="40.507"
     gradientUnits="userSpaceOnUse"
     gradientTransform="translate(58)"><stop
       offset="0"
       stop-color="#a8142e"
       id="stop4" /><stop
       offset=".179"
       stop-color="#ba1632"
       id="stop5" /><stop
       offset=".243"
       stop-color="#c21734"
       id="stop6" /></linearGradient><linearGradient
     id="wRKXFJsqHCxLE9yyOYHkza"
     x1="9.8579998"
     x2="38.141998"
     y1="9.8579998"
     y2="38.141998"
     gradientUnits="userSpaceOnUse"
     gradientTransform="translate(116)"><stop
       offset="0"
       stop-color="#f44f5a"
       id="stop1-1" /><stop
       offset=".443"
       stop-color="#ee3d4a"
       id="stop2-5" /><stop
       offset="1"
       stop-color="#e52030"
       id="stop3-2" /></linearGradient><g
     id="g11"
     style="display:inline"
     transform="matrix(0.89285714,0,0,0.89285714,2.5714286,2.5714286)"><path
       fill="#cccccc"
       d="m 43,8 c 1.105,0 2,0.895 2,2 v 5 H 3 V 10 C 3,8.895 3.895,8 5,8 Z"
       id="path1" /><path
       fill="url(#YxSJb7ho~j2pFgiBR2SzXa)"
       d="M 45,13 H 3 v 25 c 0,1.105 0.895,2 2,2 h 38 c 1.105,0 2,-0.895 2,-2 z"
       id="path2"
       style="fill:url(#YxSJb7ho~j2pFgiBR2SzXa)" /><circle
       cx="42"
       cy="11"
       r="1"
       fill="#999999"
       id="circle2" /><circle
       cx="39"
       cy="11"
       r="1"
       fill="#999999"
       id="circle3" /><path
       d="m 28.744,17.59 v 0 C 28.482,17.22 28.056,17 27.604,17 h -1.077 c -0.626,0 -1.186,0.396 -1.393,0.985 L 19.08,35.141 c -0.15,0.426 -0.083,0.9 0.178,1.271 C 19.519,36.78 19.944,37 20.396,37 h 1.077 c 0.626,0 1.187,-0.396 1.393,-0.986 L 28.921,18.86 c 0.149,-0.426 0.083,-0.901 -0.177,-1.27 z"
       opacity="0.05"
       id="path9" /><g
       id="g15"
       transform="translate(-2.24)"><path
         d="M 36.755,26.042 34.433,21.784 C 34.17,21.301 33.664,21 33.113,21 h -1.41 c -0.477,0 -0.907,0.245 -1.15,0.654 -0.244,0.41 -0.253,0.904 -0.024,1.324 L 32.722,27 30.528,31.021 c -0.229,0.42 -0.219,0.914 0.024,1.323 0.244,0.41 0.673,0.655 1.15,0.655 h 1.41 c 0.551,0 1.057,-0.301 1.32,-0.784 l 2.323,-4.258 c 0.328,-0.599 0.328,-1.315 0,-1.915 z"
         opacity="0.05"
         id="path3" /><path
         d="M 36.317,26.282 33.994,22.023 C 33.818,21.7 33.48,21.5 33.113,21.5 h -1.41 c -0.299,0 -0.568,0.153 -0.72,0.41 -0.153,0.257 -0.158,0.566 -0.015,0.829 L 33.292,27 30.968,31.261 c -0.143,0.263 -0.138,0.572 0.015,0.829 0.152,0.257 0.421,0.41 0.72,0.41 h 1.41 c 0.367,0 0.705,-0.2 0.881,-0.523 l 2.323,-4.259 c 0.245,-0.449 0.245,-0.987 0,-1.436 z"
         opacity="0.07"
         id="path4" /><path
         d="m 11.245,26.042 2.322,-4.258 C 13.83,21.301 14.336,21 14.887,21 h 1.41 c 0.477,0 0.907,0.245 1.15,0.654 0.244,0.41 0.253,0.904 0.024,1.324 L 15.278,27 l 2.194,4.021 c 0.229,0.42 0.219,0.914 -0.024,1.323 C 17.204,32.755 16.774,33 16.297,33 h -1.41 c -0.551,0 -1.057,-0.301 -1.32,-0.784 l -2.323,-4.258 c -0.327,-0.6 -0.327,-1.316 10e-4,-1.916 z"
         opacity="0.05"
         id="path5" /><path
         d="m 11.683,26.282 2.323,-4.259 C 14.182,21.7 14.52,21.5 14.887,21.5 h 1.41 c 0.299,0 0.568,0.153 0.72,0.41 0.153,0.257 0.158,0.566 0.015,0.829 L 14.708,27 l 2.324,4.261 c 0.143,0.263 0.138,0.572 -0.015,0.829 -0.152,0.257 -0.421,0.41 -0.72,0.41 h -1.41 c -0.367,0 -0.705,-0.2 -0.881,-0.523 l -2.323,-4.259 c -0.245,-0.449 -0.245,-0.987 0,-1.436 z"
         opacity="0.07"
         id="path6" /><path
         fill="#ffffff"
         d="m 33.861,27 -2.455,4.5 c -0.123,0.225 0.04,0.5 0.297,0.5 h 1.41 c 0.184,0 0.354,-0.101 0.442,-0.262 l 2.323,-4.259 c 0.163,-0.298 0.163,-0.659 0,-0.958 L 33.555,22.262 C 33.467,22.101 33.297,22 33.113,22 h -1.41 c -0.256,0 -0.419,0.274 -0.297,0.5 z"
         id="path7" /><path
         fill="#ffffff"
         d="m 14.139,27 2.455,4.5 c 0.123,0.225 -0.04,0.5 -0.297,0.5 h -1.41 c -0.184,0 -0.354,-0.101 -0.442,-0.262 l -2.323,-4.259 c -0.163,-0.298 -0.163,-0.659 0,-0.958 l 2.323,-4.259 C 14.533,22.101 14.703,22 14.887,22 h 1.41 c 0.256,0 0.419,0.274 0.297,0.5 z"
         id="path8" /><path
         d="M 28.335,17.878 C 28.168,17.642 27.894,17.5 27.604,17.5 h -1.077 c -0.414,0 -0.784,0.262 -0.921,0.651 l -6.055,17.155 c -0.096,0.273 -0.054,0.578 0.114,0.815 0.167,0.236 0.441,0.378 0.731,0.378 h 1.077 c 0.415,0 0.785,-0.263 0.921,-0.652 l 6.055,-17.154 c 0.096,-0.273 0.053,-0.578 -0.114,-0.815 z"
         opacity="0.07"
         id="path10" /><path
         fill="#ffffff"
         d="m 27.604,18 h -1.077 c -0.202,0 -0.382,0.127 -0.449,0.318 L 20.023,35.473 C 19.932,35.73 20.123,36 20.396,36 h 1.077 c 0.202,0 0.382,-0.127 0.449,-0.318 L 27.977,18.527 C 28.068,18.27 27.877,18 27.604,18 Z"
         id="path11" /></g></g><g
     id="g14"
     transform="matrix(0.37684211,0,0,0.37684211,-15.221053,28.492632)"><path
       fill="url(#wRKXFJsqHCxLE9yyOYHkza)"
       d="m 160,24 c 0,11.045 -8.955,20 -20,20 -11.045,0 -20,-8.955 -20,-20 0,-11.045 8.955,-20 20,-20 11.045,0 20,8.955 20,20 z"
       id="path3-76"
       style="fill:url(#wRKXFJsqHCxLE9yyOYHkza)" /><path
       d="m 149.192,28.95 -4.949,-4.95 4.95,-4.95 c 0.781,-0.781 0.781,-2.047 0,-2.828 l -1.414,-1.414 c -0.781,-0.781 -2.047,-0.781 -2.828,0 l -4.951,4.949 -4.95,-4.95 c -0.781,-0.781 -2.047,-0.781 -2.828,0 l -1.414,1.414 c -0.781,0.781 -0.781,2.047 0,2.828 l 4.95,4.95 -4.95,4.95 c -0.781,0.781 -0.781,2.047 0,2.828 l 1.414,1.414 c 0.781,0.781 2.047,0.781 2.828,0 l 4.95,-4.95 4.95,4.95 c 0.781,0.781 2.047,0.781 2.828,0 l 1.414,-1.414 c 0.781,-0.78 0.781,-2.046 0,-2.827 z"
       opacity="0.05"
       id="path4-1" /><path
       d="M 148.839,29.303 143.536,24 l 5.303,-5.303 c 0.586,-0.586 0.586,-1.536 0,-2.121 l -1.414,-1.414 c -0.586,-0.586 -1.536,-0.586 -2.121,0 L 140,20.464 134.697,15.161 c -0.586,-0.586 -1.536,-0.586 -2.121,0 l -1.414,1.414 c -0.586,0.586 -0.586,1.536 0,2.121 l 5.302,5.304 -5.303,5.303 c -0.586,0.586 -0.586,1.536 0,2.121 l 1.414,1.414 c 0.586,0.586 1.536,0.586 2.121,0 l 5.304,-5.302 5.303,5.303 c 0.586,0.586 1.536,0.586 2.121,0 l 1.414,-1.414 c 0.587,-0.586 0.587,-1.536 0.001,-2.122 z"
       opacity="0.07"
       id="path5-4" /><path
       fill="#ffffff"
       d="m 147.071,15.515 1.414,1.414 c 0.391,0.391 0.391,1.024 0,1.414 l -14.142,14.142 c -0.391,0.391 -1.024,0.391 -1.414,0 l -1.414,-1.414 c -0.391,-0.391 -0.391,-1.024 0,-1.414 l 14.142,-14.142 c 0.39,-0.391 1.024,-0.391 1.414,0 z"
       id="path6-2" /><path
       fill="#ffffff"
       d="m 148.485,31.071 -1.414,1.414 c -0.391,0.391 -1.024,0.391 -1.414,0 L 131.515,18.343 c -0.391,-0.391 -0.391,-1.024 0,-1.414 l 1.414,-1.414 c 0.391,-0.391 1.024,-0.391 1.414,0 l 14.142,14.142 c 0.391,0.39 0.391,1.024 0,1.414 z"
       id="path7-3" /></g></svg>
